<svg xmlns="http://www.w3.org/2000/svg" viewBox="0 0 920 420" role="img" aria-labelledby="title desc">
  <title id="title">Periodic ramp and Fourier partial sums</title>
  <desc id="desc">A periodic ramp on zero to pi, extended with period two pi, with partial Fourier sums S0, S1, S2, and S8.</desc>
  <style>
    .axis { stroke: #1f2937; stroke-width: 1.8; marker-end: url(#arrow); }
    .grid { stroke: #d1d5db; stroke-width: 1; stroke-dasharray: 5 5; }
    .tick, .label, .legend { fill: #475569; font: 14px system-ui, sans-serif; }
    .formula { fill: #0f766e; font: 16px Georgia, serif; }
    .ramp { stroke: #2563eb; stroke-width: 3; fill: none; }
    .s0 { stroke: #111827; stroke-width: 2.2; fill: none; }
    .s1 { stroke: #dc2626; stroke-width: 2.2; fill: none; }
    .s2 { stroke: #0f766e; stroke-width: 2.2; fill: none; stroke-dasharray: 8 5; }
    .s8 { stroke: #7c3aed; stroke-width: 2.4; fill: none; stroke-dasharray: 10 4 2 4; }
    .open { fill: #fff; stroke: #2563eb; stroke-width: 2; }
    .closed { fill: #2563eb; stroke: #2563eb; stroke-width: 2; }
    .legend-box { fill: #fff; stroke: #cbd5e1; stroke-width: 1; }
  </style>
  <defs>
    <marker id="arrow" markerWidth="10" markerHeight="8" refX="9" refY="4" orient="auto">
      <path d="M0,0 L10,4 L0,8 Z" fill="#1f2937"/>
    </marker>
  </defs>
  <rect width="100%" height="100%" fill="#ffffff"/>
  <line class="grid" x1="87.1" y1="368.0" x2="87.1" y2="28.0"/><text class="tick" x="87.1" y="341.0" text-anchor="middle">-2&#960;</text><line class="grid" x1="281.0" y1="368.0" x2="281.0" y2="28.0"/><text class="tick" x="281.0" y="341.0" text-anchor="middle">-&#960;</text><line class="grid" x1="475.0" y1="368.0" x2="475.0" y2="28.0"/><text class="tick" x="475.0" y="341.0" text-anchor="middle">0</text><line class="grid" x1="669.0" y1="368.0" x2="669.0" y2="28.0"/><text class="tick" x="669.0" y="341.0" text-anchor="middle">&#960;</text><line class="grid" x1="862.9" y1="368.0" x2="862.9" y2="28.0"/><text class="tick" x="862.9" y="341.0" text-anchor="middle">2&#960;</text>
  <line class="grid" x1="58.0" y1="93.7" x2="892.0" y2="93.7"/>
  <text class="tick" x="461.0" y="85.7" text-anchor="end">pi</text>
  <line class="axis" x1="58.0" y1="321.0" x2="892.0" y2="321.0"/>
  <line class="axis" x1="475.0" y1="368.0" x2="475.0" y2="28.0"/>
  <text class="label" x="884.0" y="311.0">x</text>
  <text class="label" x="485.0" y="44.0">f(x)</text>
  <polyline class="ramp" points="87.1,321.0 281.0,93.7"/>
  <polyline class="ramp" points="281.0,321.0 475.0,321.0"/>
  <polyline class="ramp" points="475.0,321.0 669.0,93.7"/>
  <polyline class="ramp" points="669.0,321.0 862.9,321.0"/>
  <polyline class="s0" points="281.05,264.16 281.82,264.16 282.60,264.16 283.37,264.16 284.15,264.16 284.93,264.16 285.70,264.16 286.48,264.16 287.25,264.16 288.03,264.16 288.80,264.16 289.58,264.16 290.36,264.16 291.13,264.16 291.91,264.16 292.68,264.16 293.46,264.16 294.24,264.16 295.01,264.16 295.79,264.16 296.56,264.16 297.34,264.16 298.11,264.16 298.89,264.16 299.67,264.16 300.44,264.16 301.22,264.16 301.99,264.16 302.77,264.16 303.55,264.16 304.32,264.16 305.10,264.16 305.87,264.16 306.65,264.16 307.42,264.16 308.20,264.16 308.98,264.16 309.75,264.16 310.53,264.16 311.30,264.16 312.08,264.16 312.85,264.16 313.63,264.16 314.41,264.16 315.18,264.16 315.96,264.16 316.73,264.16 317.51,264.16 318.29,264.16 319.06,264.16 319.84,264.16 320.61,264.16 321.39,264.16 322.16,264.16 322.94,264.16 323.72,264.16 324.49,264.16 325.27,264.16 326.04,264.16 326.82,264.16 327.60,264.16 328.37,264.16 329.15,264.16 329.92,264.16 330.70,264.16 331.47,264.16 332.25,264.16 333.03,264.16 333.80,264.16 334.58,264.16 335.35,264.16 336.13,264.16 336.91,264.16 337.68,264.16 338.46,264.16 339.23,264.16 340.01,264.16 340.78,264.16 341.56,264.16 342.34,264.16 343.11,264.16 343.89,264.16 344.66,264.16 345.44,264.16 346.21,264.16 346.99,264.16 347.77,264.16 348.54,264.16 349.32,264.16 350.09,264.16 350.87,264.16 351.65,264.16 352.42,264.16 353.20,264.16 353.97,264.16 354.75,264.16 355.52,264.16 356.30,264.16 357.08,264.16 357.85,264.16 358.63,264.16 359.40,264.16 360.18,264.16 360.96,264.16 361.73,264.16 362.51,264.16 363.28,264.16 364.06,264.16 364.83,264.16 365.61,264.16 366.39,264.16 367.16,264.16 367.94,264.16 368.71,264.16 369.49,264.16 370.27,264.16 371.04,264.16 371.82,264.16 372.59,264.16 373.37,264.16 374.14,264.16 374.92,264.16 375.70,264.16 376.47,264.16 377.25,264.16 378.02,264.16 378.80,264.16 379.57,264.16 380.35,264.16 381.13,264.16 381.90,264.16 382.68,264.16 383.45,264.16 384.23,264.16 385.01,264.16 385.78,264.16 386.56,264.16 387.33,264.16 388.11,264.16 388.88,264.16 389.66,264.16 390.44,264.16 391.21,264.16 391.99,264.16 392.76,264.16 393.54,264.16 394.32,264.16 395.09,264.16 395.87,264.16 396.64,264.16 397.42,264.16 398.19,264.16 398.97,264.16 399.75,264.16 400.52,264.16 401.30,264.16 402.07,264.16 402.85,264.16 403.63,264.16 404.40,264.16 405.18,264.16 405.95,264.16 406.73,264.16 407.50,264.16 408.28,264.16 409.06,264.16 409.83,264.16 410.61,264.16 411.38,264.16 412.16,264.16 412.93,264.16 413.71,264.16 414.49,264.16 415.26,264.16 416.04,264.16 416.81,264.16 417.59,264.16 418.37,264.16 419.14,264.16 419.92,264.16 420.69,264.16 421.47,264.16 422.24,264.16 423.02,264.16 423.80,264.16 424.57,264.16 425.35,264.16 426.12,264.16 426.90,264.16 427.68,264.16 428.45,264.16 429.23,264.16 430.00,264.16 430.78,264.16 431.55,264.16 432.33,264.16 433.11,264.16 433.88,264.16 434.66,264.16 435.43,264.16 436.21,264.16 436.99,264.16 437.76,264.16 438.54,264.16 439.31,264.16 440.09,264.16 440.86,264.16 441.64,264.16 442.42,264.16 443.19,264.16 443.97,264.16 444.74,264.16 445.52,264.16 446.29,264.16 447.07,264.16 447.85,264.16 448.62,264.16 449.40,264.16 450.17,264.16 450.95,264.16 451.73,264.16 452.50,264.16 453.28,264.16 454.05,264.16 454.83,264.16 455.60,264.16 456.38,264.16 457.16,264.16 457.93,264.16 458.71,264.16 459.48,264.16 460.26,264.16 461.04,264.16 461.81,264.16 462.59,264.16 463.36,264.16 464.14,264.16 464.91,264.16 465.69,264.16 466.47,264.16 467.24,264.16 468.02,264.16 468.79,264.16 469.57,264.16 470.35,264.16 471.12,264.16 471.90,264.16 472.67,264.16 473.45,264.16 474.22,264.16 475.00,264.16 475.78,264.16 476.55,264.16 477.33,264.16 478.10,264.16 478.88,264.16 479.65,264.16 480.43,264.16 481.21,264.16 481.98,264.16 482.76,264.16 483.53,264.16 484.31,264.16 485.09,264.16 485.86,264.16 486.64,264.16 487.41,264.16 488.19,264.16 488.96,264.16 489.74,264.16 490.52,264.16 491.29,264.16 492.07,264.16 492.84,264.16 493.62,264.16 494.40,264.16 495.17,264.16 495.95,264.16 496.72,264.16 497.50,264.16 498.27,264.16 499.05,264.16 499.83,264.16 500.60,264.16 501.38,264.16 502.15,264.16 502.93,264.16 503.71,264.16 504.48,264.16 505.26,264.16 506.03,264.16 506.81,264.16 507.58,264.16 508.36,264.16 509.14,264.16 509.91,264.16 510.69,264.16 511.46,264.16 512.24,264.16 513.01,264.16 513.79,264.16 514.57,264.16 515.34,264.16 516.12,264.16 516.89,264.16 517.67,264.16 518.45,264.16 519.22,264.16 520.00,264.16 520.77,264.16 521.55,264.16 522.32,264.16 523.10,264.16 523.88,264.16 524.65,264.16 525.43,264.16 526.20,264.16 526.98,264.16 527.76,264.16 528.53,264.16 529.31,264.16 530.08,264.16 530.86,264.16 531.63,264.16 532.41,264.16 533.19,264.16 533.96,264.16 534.74,264.16 535.51,264.16 536.29,264.16 537.07,264.16 537.84,264.16 538.62,264.16 539.39,264.16 540.17,264.16 540.94,264.16 541.72,264.16 542.50,264.16 543.27,264.16 544.05,264.16 544.82,264.16 545.60,264.16 546.37,264.16 547.15,264.16 547.93,264.16 548.70,264.16 549.48,264.16 550.25,264.16 551.03,264.16 551.81,264.16 552.58,264.16 553.36,264.16 554.13,264.16 554.91,264.16 555.68,264.16 556.46,264.16 557.24,264.16 558.01,264.16 558.79,264.16 559.56,264.16 560.34,264.16 561.12,264.16 561.89,264.16 562.67,264.16 563.44,264.16 564.22,264.16 564.99,264.16 565.77,264.16 566.55,264.16 567.32,264.16 568.10,264.16 568.87,264.16 569.65,264.16 570.43,264.16 571.20,264.16 571.98,264.16 572.75,264.16 573.53,264.16 574.30,264.16 575.08,264.16 575.86,264.16 576.63,264.16 577.41,264.16 578.18,264.16 578.96,264.16 579.73,264.16 580.51,264.16 581.29,264.16 582.06,264.16 582.84,264.16 583.61,264.16 584.39,264.16 585.17,264.16 585.94,264.16 586.72,264.16 587.49,264.16 588.27,264.16 589.04,264.16 589.82,264.16 590.60,264.16 591.37,264.16 592.15,264.16 592.92,264.16 593.70,264.16 594.48,264.16 595.25,264.16 596.03,264.16 596.80,264.16 597.58,264.16 598.35,264.16 599.13,264.16 599.91,264.16 600.68,264.16 601.46,264.16 602.23,264.16 603.01,264.16 603.79,264.16 604.56,264.16 605.34,264.16 606.11,264.16 606.89,264.16 607.66,264.16 608.44,264.16 609.22,264.16 609.99,264.16 610.77,264.16 611.54,264.16 612.32,264.16 613.09,264.16 613.87,264.16 614.65,264.16 615.42,264.16 616.20,264.16 616.97,264.16 617.75,264.16 618.53,264.16 619.30,264.16 620.08,264.16 620.85,264.16 621.63,264.16 622.40,264.16 623.18,264.16 623.96,264.16 624.73,264.16 625.51,264.16 626.28,264.16 627.06,264.16 627.84,264.16 628.61,264.16 629.39,264.16 630.16,264.16 630.94,264.16 631.71,264.16 632.49,264.16 633.27,264.16 634.04,264.16 634.82,264.16 635.59,264.16 636.37,264.16 637.15,264.16 637.92,264.16 638.70,264.16 639.47,264.16 640.25,264.16 641.02,264.16 641.80,264.16 642.58,264.16 643.35,264.16 644.13,264.16 644.90,264.16 645.68,264.16 646.45,264.16 647.23,264.16 648.01,264.16 648.78,264.16 649.56,264.16 650.33,264.16 651.11,264.16 651.89,264.16 652.66,264.16 653.44,264.16 654.21,264.16 654.99,264.16 655.76,264.16 656.54,264.16 657.32,264.16 658.09,264.16 658.87,264.16 659.64,264.16 660.42,264.16 661.20,264.16 661.97,264.16 662.75,264.16 663.52,264.16 664.30,264.16 665.07,264.16 665.85,264.16 666.63,264.16 667.40,264.16 668.18,264.16 668.95,264.16"/>
  <polyline class="s1" points="281.05,218.11 281.82,219.02 282.60,219.94 283.37,220.87 284.15,221.80 284.93,222.74 285.70,223.69 286.48,224.64 287.25,225.60 288.03,226.57 288.80,227.54 289.58,228.52 290.36,229.50 291.13,230.49 291.91,231.48 292.68,232.48 293.46,233.48 294.24,234.49 295.01,235.51 295.79,236.52 296.56,237.55 297.34,238.57 298.11,239.60 298.89,240.64 299.67,241.68 300.44,242.72 301.22,243.76 301.99,244.81 302.77,245.86 303.55,246.92 304.32,247.97 305.10,249.03 305.87,250.10 306.65,251.16 307.42,252.23 308.20,253.29 308.98,254.36 309.75,255.43 310.53,256.51 311.30,257.58 312.08,258.66 312.85,259.73 313.63,260.81 314.41,261.89 315.18,262.96 315.96,264.04 316.73,265.12 317.51,266.20 318.29,267.27 319.06,268.35 319.84,269.43 320.61,270.50 321.39,271.57 322.16,272.65 322.94,273.72 323.72,274.79 324.49,275.86 325.27,276.92 326.04,277.99 326.82,279.05 327.60,280.11 328.37,281.17 329.15,282.22 329.92,283.28 330.70,284.33 331.47,285.37 332.25,286.41 333.03,287.45 333.80,288.49 334.58,289.52 335.35,290.55 336.13,291.57 336.91,292.59 337.68,293.60 338.46,294.61 339.23,295.62 340.01,296.62 340.78,297.61 341.56,298.60 342.34,299.59 343.11,300.57 343.89,301.54 344.66,302.50 345.44,303.47 346.21,304.42 346.99,305.37 347.77,306.31 348.54,307.25 349.32,308.17 350.09,309.10 350.87,310.01 351.65,310.92 352.42,311.82 353.20,312.71 353.97,313.59 354.75,314.47 355.52,315.34 356.30,316.20 357.08,317.05 357.85,317.90 358.63,318.73 359.40,319.56 360.18,320.38 360.96,321.19 361.73,321.99 362.51,322.78 363.28,323.56 364.06,324.33 364.83,325.10 365.61,325.85 366.39,326.59 367.16,327.33 367.94,328.05 368.71,328.76 369.49,329.47 370.27,330.16 371.04,330.84 371.82,331.52 372.59,332.18 373.37,332.83 374.14,333.47 374.92,334.10 375.70,334.72 376.47,335.32 377.25,335.92 378.02,336.50 378.80,337.08 379.57,337.64 380.35,338.19 381.13,338.73 381.90,339.25 382.68,339.77 383.45,340.27 384.23,340.76 385.01,341.24 385.78,341.70 386.56,342.16 387.33,342.60 388.11,343.03 388.88,343.45 389.66,343.85 390.44,344.24 391.21,344.62 391.99,344.99 392.76,345.34 393.54,345.68 394.32,346.01 395.09,346.33 395.87,346.63 396.64,346.92 397.42,347.19 398.19,347.46 398.97,347.71 399.75,347.94 400.52,348.17 401.30,348.38 402.07,348.57 402.85,348.76 403.63,348.93 404.40,349.08 405.18,349.23 405.95,349.36 406.73,349.47 407.50,349.58 408.28,349.67 409.06,349.74 409.83,349.80 410.61,349.85 411.38,349.89 412.16,349.91 412.93,349.92 413.71,349.91 414.49,349.89 415.26,349.86 416.04,349.82 416.81,349.76 417.59,349.68 418.37,349.60 419.14,349.50 419.92,349.38 420.69,349.26 421.47,349.12 422.24,348.96 423.02,348.80 423.80,348.62 424.57,348.42 425.35,348.22 426.12,347.99 426.90,347.76 427.68,347.51 428.45,347.25 429.23,346.98 430.00,346.70 430.78,346.40 431.55,346.08 432.33,345.76 433.11,345.42 433.88,345.07 434.66,344.71 435.43,344.33 436.21,343.94 436.99,343.54 437.76,343.13 438.54,342.70 439.31,342.26 440.09,341.81 440.86,341.35 441.64,340.87 442.42,340.38 443.19,339.88 443.97,339.37 444.74,338.85 445.52,338.31 446.29,337.76 447.07,337.20 447.85,336.63 448.62,336.05 449.40,335.46 450.17,334.85 450.95,334.24 451.73,333.61 452.50,332.97 453.28,332.33 454.05,331.67 454.83,331.00 455.60,330.32 456.38,329.63 457.16,328.92 457.93,328.21 458.71,327.49 459.48,326.76 460.26,326.02 461.04,325.27 461.81,324.51 462.59,323.74 463.36,322.96 464.14,322.17 464.91,321.37 465.69,320.56 466.47,319.74 467.24,318.92 468.02,318.09 468.79,317.24 469.57,316.39 470.35,315.53 471.12,314.67 471.90,313.79 472.67,312.91 473.45,312.02 474.22,311.12 475.00,310.22 475.78,309.30 476.55,308.38 477.33,307.46 478.10,306.52 478.88,305.58 479.65,304.64 480.43,303.68 481.21,302.72 481.98,301.76 482.76,300.79 483.53,299.81 484.31,298.83 485.09,297.84 485.86,296.84 486.64,295.85 487.41,294.84 488.19,293.83 488.96,292.82 489.74,291.80 490.52,290.78 491.29,289.75 492.07,288.72 492.84,287.69 493.62,286.65 494.40,285.61 495.17,284.56 495.95,283.51 496.72,282.46 497.50,281.41 498.27,280.35 499.05,279.29 499.83,278.23 500.60,277.17 501.38,276.10 502.15,275.03 502.93,273.96 503.71,272.89 504.48,271.82 505.26,270.74 506.03,269.67 506.81,268.59 507.58,267.52 508.36,266.44 509.14,265.36 509.91,264.28 510.69,263.21 511.46,262.13 512.24,261.05 513.01,259.98 513.79,258.90 514.57,257.82 515.34,256.75 516.12,255.68 516.89,254.61 517.67,253.54 518.45,252.47 519.22,251.40 520.00,250.34 520.77,249.27 521.55,248.21 522.32,247.16 523.10,246.10 523.88,245.05 524.65,244.00 525.43,242.95 526.20,241.91 526.98,240.87 527.76,239.84 528.53,238.81 529.31,237.78 530.08,236.76 530.86,235.74 531.63,234.72 532.41,233.71 533.19,232.71 533.96,231.71 534.74,230.71 535.51,229.72 536.29,228.74 537.07,227.76 537.84,226.79 538.62,225.82 539.39,224.86 540.17,223.90 540.94,222.96 541.72,222.01 542.50,221.08 543.27,220.15 544.05,219.23 544.82,218.32 545.60,217.41 546.37,216.51 547.15,215.62 547.93,214.73 548.70,213.86 549.48,212.99 550.25,212.13 551.03,211.27 551.81,210.43 552.58,209.59 553.36,208.77 554.13,207.95 554.91,207.14 555.68,206.34 556.46,205.55 557.24,204.77 558.01,203.99 558.79,203.23 559.56,202.48 560.34,201.73 561.12,201.00 561.89,200.28 562.67,199.56 563.44,198.86 564.22,198.16 564.99,197.48 565.77,196.81 566.55,196.15 567.32,195.50 568.10,194.86 568.87,194.23 569.65,193.61 570.43,193.00 571.20,192.41 571.98,191.82 572.75,191.25 573.53,190.69 574.30,190.14 575.08,189.60 575.86,189.07 576.63,188.56 577.41,188.06 578.18,187.57 578.96,187.09 579.73,186.62 580.51,186.17 581.29,185.72 582.06,185.30 582.84,184.88 583.61,184.47 584.39,184.08 585.17,183.70 585.94,183.34 586.72,182.98 587.49,182.64 588.27,182.31 589.04,182.00 589.82,181.70 590.60,181.41 591.37,181.13 592.15,180.87 592.92,180.62 593.70,180.38 594.48,180.16 595.25,179.95 596.03,179.75 596.80,179.57 597.58,179.40 598.35,179.24 599.13,179.10 599.91,178.97 600.68,178.85 601.46,178.75 602.23,178.66 603.01,178.58 603.79,178.52 604.56,178.47 605.34,178.44 606.11,178.42 606.89,178.41 607.66,178.41 608.44,178.43 609.22,178.46 609.99,178.51 610.77,178.57 611.54,178.64 612.32,178.73 613.09,178.83 613.87,178.94 614.65,179.07 615.42,179.21 616.20,179.36 616.97,179.53 617.75,179.71 618.53,179.90 619.30,180.11 620.08,180.33 620.85,180.56 621.63,180.81 622.40,181.07 623.18,181.34 623.96,181.63 624.73,181.93 625.51,182.24 626.28,182.57 627.06,182.90 627.84,183.26 628.61,183.62 629.39,184.00 630.16,184.38 630.94,184.79 631.71,185.20 632.49,185.63 633.27,186.07 634.04,186.52 634.82,186.98 635.59,187.46 636.37,187.94 637.15,188.44 637.92,188.96 638.70,189.48 639.47,190.01 640.25,190.56 641.02,191.12 641.80,191.69 642.58,192.27 643.35,192.87 644.13,193.47 644.90,194.09 645.68,194.71 646.45,195.35 647.23,196.00 648.01,196.66 648.78,197.33 649.56,198.01 650.33,198.70 651.11,199.40 651.89,200.11 652.66,200.83 653.44,201.57 654.21,202.31 654.99,203.06 655.76,203.82 656.54,204.59 657.32,205.37 658.09,206.16 658.87,206.96 659.64,207.76 660.42,208.58 661.20,209.41 661.97,210.24 662.75,211.08 663.52,211.93 664.30,212.79 665.07,213.66 665.85,214.53 666.63,215.42 667.40,216.31 668.18,217.20 668.95,218.11"/>
  <polyline class="s2" points="281.05,218.11 281.82,219.93 282.60,221.76 283.37,223.59 284.15,225.43 284.93,227.28 285.70,229.12 286.48,230.97 287.25,232.83 288.03,234.68 288.80,236.53 289.58,238.39 290.36,240.24 291.13,242.10 291.91,243.95 292.68,245.80 293.46,247.64 294.24,249.48 295.01,251.32 295.79,253.15 296.56,254.97 297.34,256.79 298.11,258.60 298.89,260.40 299.67,262.19 300.44,263.98 301.22,265.75 301.99,267.51 302.77,269.27 303.55,271.01 304.32,272.73 305.10,274.45 305.87,276.15 306.65,277.84 307.42,279.51 308.20,281.16 308.98,282.80 309.75,284.43 310.53,286.03 311.30,287.62 312.08,289.20 312.85,290.75 313.63,292.28 314.41,293.80 315.18,295.29 315.96,296.77 316.73,298.22 317.51,299.66 318.29,301.07 319.06,302.46 319.84,303.83 320.61,305.17 321.39,306.49 322.16,307.79 322.94,309.07 323.72,310.32 324.49,311.55 325.27,312.75 326.04,313.93 326.82,315.08 327.60,316.21 328.37,317.31 329.15,318.39 329.92,319.44 330.70,320.47 331.47,321.47 332.25,322.44 333.03,323.39 333.80,324.31 334.58,325.21 335.35,326.08 336.13,326.92 336.91,327.73 337.68,328.52 338.46,329.28 339.23,330.02 340.01,330.73 340.78,331.41 341.56,332.06 342.34,332.69 343.11,333.29 343.89,333.87 344.66,334.42 345.44,334.94 346.21,335.44 346.99,335.91 347.77,336.35 348.54,336.77 349.32,337.17 350.09,337.54 350.87,337.88 351.65,338.20 352.42,338.49 353.20,338.76 353.97,339.01 354.75,339.23 355.52,339.43 356.30,339.60 357.08,339.76 357.85,339.88 358.63,339.99 359.40,340.08 360.18,340.14 360.96,340.18 361.73,340.20 362.51,340.20 363.28,340.18 364.06,340.14 364.83,340.08 365.61,340.00 366.39,339.91 367.16,339.79 367.94,339.66 368.71,339.51 369.49,339.34 370.27,339.16 371.04,338.96 371.82,338.74 372.59,338.51 373.37,338.26 374.14,338.00 374.92,337.73 375.70,337.44 376.47,337.14 377.25,336.83 378.02,336.50 378.80,336.17 379.57,335.82 380.35,335.46 381.13,335.10 381.90,334.72 382.68,334.33 383.45,333.94 384.23,333.54 385.01,333.13 385.78,332.71 386.56,332.29 387.33,331.86 388.11,331.42 388.88,330.98 389.66,330.54 390.44,330.09 391.21,329.63 391.99,329.18 392.76,328.72 393.54,328.26 394.32,327.80 395.09,327.33 395.87,326.87 396.64,326.40 397.42,325.93 398.19,325.47 398.97,325.00 399.75,324.54 400.52,324.08 401.30,323.62 402.07,323.16 402.85,322.70 403.63,322.25 404.40,321.80 405.18,321.36 405.95,320.92 406.73,320.48 407.50,320.05 408.28,319.62 409.06,319.20 409.83,318.79 410.61,318.38 411.38,317.98 412.16,317.58 412.93,317.19 413.71,316.81 414.49,316.43 415.26,316.07 416.04,315.71 416.81,315.36 417.59,315.01 418.37,314.68 419.14,314.35 419.92,314.04 420.69,313.73 421.47,313.43 422.24,313.14 423.02,312.86 423.80,312.59 424.57,312.32 425.35,312.07 426.12,311.83 426.90,311.59 427.68,311.37 428.45,311.16 429.23,310.95 430.00,310.76 430.78,310.57 431.55,310.40 432.33,310.23 433.11,310.07 433.88,309.93 434.66,309.79 435.43,309.66 436.21,309.54 436.99,309.43 437.76,309.33 438.54,309.24 439.31,309.16 440.09,309.08 440.86,309.01 441.64,308.96 442.42,308.91 443.19,308.86 443.97,308.83 444.74,308.80 445.52,308.78 446.29,308.77 447.07,308.76 447.85,308.76 448.62,308.77 449.40,308.78 450.17,308.80 450.95,308.82 451.73,308.85 452.50,308.88 453.28,308.92 454.05,308.96 454.83,309.01 455.60,309.06 456.38,309.11 457.16,309.16 457.93,309.22 458.71,309.27 459.48,309.33 460.26,309.39 461.04,309.46 461.81,309.52 462.59,309.58 463.36,309.64 464.14,309.70 464.91,309.76 465.69,309.82 466.47,309.87 467.24,309.92 468.02,309.97 468.79,310.02 469.57,310.06 470.35,310.10 471.12,310.13 471.90,310.16 472.67,310.19 473.45,310.20 474.22,310.21 475.00,310.22 475.78,310.21 476.55,310.20 477.33,310.18 478.10,310.15 478.88,310.12 479.65,310.07 480.43,310.01 481.21,309.95 481.98,309.87 482.76,309.78 483.53,309.68 484.31,309.57 485.09,309.45 485.86,309.31 486.64,309.16 487.41,309.00 488.19,308.82 488.96,308.63 489.74,308.42 490.52,308.20 491.29,307.97 492.07,307.72 492.84,307.45 493.62,307.17 494.40,306.87 495.17,306.55 495.95,306.22 496.72,305.87 497.50,305.50 498.27,305.11 499.05,304.71 499.83,304.28 500.60,303.84 501.38,303.38 502.15,302.90 502.93,302.40 503.71,301.88 504.48,301.35 505.26,300.79 506.03,300.21 506.81,299.61 507.58,298.99 508.36,298.35 509.14,297.69 509.91,297.01 510.69,296.31 511.46,295.59 512.24,294.85 513.01,294.08 513.79,293.30 514.57,292.49 515.34,291.67 516.12,290.82 516.89,289.95 517.67,289.07 518.45,288.16 519.22,287.23 520.00,286.28 520.77,285.30 521.55,284.31 522.32,283.30 523.10,282.27 523.88,281.22 524.65,280.14 525.43,279.05 526.20,277.94 526.98,276.81 527.76,275.66 528.53,274.50 529.31,273.31 530.08,272.10 530.86,270.88 531.63,269.64 532.41,268.38 533.19,267.11 533.96,265.82 534.74,264.51 535.51,263.18 536.29,261.84 537.07,260.49 537.84,259.12 538.62,257.73 539.39,256.33 540.17,254.92 540.94,253.50 541.72,252.06 542.50,250.61 543.27,249.14 544.05,247.67 544.82,246.19 545.60,244.69 546.37,243.18 547.15,241.67 547.93,240.15 548.70,238.62 549.48,237.08 550.25,235.53 551.03,233.98 551.81,232.42 552.58,230.85 553.36,229.29 554.13,227.71 554.91,226.14 555.68,224.56 556.46,222.97 557.24,221.39 558.01,219.80 558.79,218.22 559.56,216.63 560.34,215.05 561.12,213.47 561.89,211.88 562.67,210.31 563.44,208.73 564.22,207.16 564.99,205.59 565.77,204.03 566.55,202.48 567.32,200.93 568.10,199.39 568.87,197.86 569.65,196.33 570.43,194.82 571.20,193.32 571.98,191.82 572.75,190.34 573.53,188.87 574.30,187.41 575.08,185.97 575.86,184.54 576.63,183.13 577.41,181.73 578.18,180.34 578.96,178.98 579.73,177.63 580.51,176.29 581.29,174.98 582.06,173.69 582.84,172.41 583.61,171.16 584.39,169.93 585.17,168.72 585.94,167.53 586.72,166.36 587.49,165.22 588.27,164.10 589.04,163.00 589.82,161.93 590.60,160.89 591.37,159.87 592.15,158.88 592.92,157.92 593.70,156.98 594.48,156.07 595.25,155.19 596.03,154.34 596.80,153.51 597.58,152.72 598.35,151.96 599.13,151.23 599.91,150.53 600.68,149.86 601.46,149.22 602.23,148.62 603.01,148.04 603.79,147.50 604.56,147.00 605.34,146.52 606.11,146.08 606.89,145.68 607.66,145.31 608.44,144.97 609.22,144.67 609.99,144.40 610.77,144.17 611.54,143.97 612.32,143.81 613.09,143.68 613.87,143.59 614.65,143.54 615.42,143.52 616.20,143.54 616.97,143.59 617.75,143.68 618.53,143.80 619.30,143.97 620.08,144.16 620.85,144.40 621.63,144.67 622.40,144.97 623.18,145.31 623.96,145.69 624.73,146.10 625.51,146.55 626.28,147.04 627.06,147.56 627.84,148.11 628.61,148.70 629.39,149.33 630.16,149.98 630.94,150.68 631.71,151.40 632.49,152.17 633.27,152.96 634.04,153.79 634.82,154.65 635.59,155.54 636.37,156.47 637.15,157.43 637.92,158.42 638.70,159.44 639.47,160.49 640.25,161.57 641.02,162.68 641.80,163.82 642.58,164.99 643.35,166.19 644.13,167.42 644.90,168.67 645.68,169.95 646.45,171.26 647.23,172.60 648.01,173.95 648.78,175.34 649.56,176.75 650.33,178.18 651.11,179.64 651.89,181.12 652.66,182.62 653.44,184.14 654.21,185.68 654.99,187.25 655.76,188.83 656.54,190.43 657.32,192.05 658.09,193.69 658.87,195.35 659.64,197.02 660.42,198.71 661.20,200.41 661.97,202.13 662.75,203.86 663.52,205.60 664.30,207.36 665.07,209.12 665.85,210.90 666.63,212.69 667.40,214.49 668.18,216.29 668.95,218.11"/>
  <polyline class="s8" points="281.05,210.21 281.82,217.49 282.60,224.77 283.37,232.03 284.15,239.22 284.93,246.33 285.70,253.32 286.48,260.17 287.25,266.86 288.03,273.35 288.80,279.63 289.58,285.67 290.36,291.46 291.13,296.97 291.91,302.19 292.68,307.11 293.46,311.71 294.24,315.98 295.01,319.91 295.79,323.50 296.56,326.75 297.34,329.65 298.11,332.21 298.89,334.42 299.67,336.30 300.44,337.84 301.22,339.06 301.99,339.98 302.77,340.59 303.55,340.92 304.32,340.98 305.10,340.79 305.87,340.36 306.65,339.72 307.42,338.88 308.20,337.87 308.98,336.70 309.75,335.40 310.53,333.99 311.30,332.48 312.08,330.91 312.85,329.29 313.63,327.64 314.41,325.99 315.18,324.34 315.96,322.72 316.73,321.15 317.51,319.63 318.29,318.19 319.06,316.84 319.84,315.59 320.61,314.44 321.39,313.42 322.16,312.52 322.94,311.75 323.72,311.11 324.49,310.61 325.27,310.25 326.04,310.03 326.82,309.94 327.60,309.98 328.37,310.15 329.15,310.44 329.92,310.85 330.70,311.36 331.47,311.97 332.25,312.66 333.03,313.44 333.80,314.28 334.58,315.17 335.35,316.11 336.13,317.08 336.91,318.07 337.68,319.07 338.46,320.07 339.23,321.05 340.01,322.01 340.78,322.93 341.56,323.81 342.34,324.64 343.11,325.40 343.89,326.10 344.66,326.72 345.44,327.26 346.21,327.72 346.99,328.09 347.77,328.37 348.54,328.56 349.32,328.66 350.09,328.67 350.87,328.59 351.65,328.42 352.42,328.18 353.20,327.85 353.97,327.45 354.75,326.99 355.52,326.46 356.30,325.88 357.08,325.26 357.85,324.59 358.63,323.90 359.40,323.19 360.18,322.46 360.96,321.73 361.73,321.00 362.51,320.29 363.28,319.59 364.06,318.92 364.83,318.29 365.61,317.69 366.39,317.15 367.16,316.65 367.94,316.22 368.71,315.84 369.49,315.53 370.27,315.28 371.04,315.11 371.82,315.00 372.59,314.97 373.37,315.00 374.14,315.10 374.92,315.27 375.70,315.49 376.47,315.78 377.25,316.13 378.02,316.52 378.80,316.96 379.57,317.45 380.35,317.96 381.13,318.50 381.90,319.07 382.68,319.65 383.45,320.23 384.23,320.82 385.01,321.40 385.78,321.98 386.56,322.53 387.33,323.06 388.11,323.56 388.88,324.02 389.66,324.44 390.44,324.82 391.21,325.16 391.99,325.44 392.76,325.66 393.54,325.83 394.32,325.95 395.09,326.00 395.87,326.00 396.64,325.94 397.42,325.82 398.19,325.66 398.97,325.43 399.75,325.17 400.52,324.85 401.30,324.50 402.07,324.10 402.85,323.68 403.63,323.23 404.40,322.76 405.18,322.27 405.95,321.78 406.73,321.27 407.50,320.77 408.28,320.28 409.06,319.80 409.83,319.34 410.61,318.89 411.38,318.48 412.16,318.10 412.93,317.76 413.71,317.45 414.49,317.19 415.26,316.97 416.04,316.80 416.81,316.68 417.59,316.61 418.37,316.58 419.14,316.61 419.92,316.69 420.69,316.82 421.47,316.99 422.24,317.20 423.02,317.46 423.80,317.75 424.57,318.08 425.35,318.44 426.12,318.82 426.90,319.23 427.68,319.65 428.45,320.08 429.23,320.52 430.00,320.96 430.78,321.40 431.55,321.83 432.33,322.25 433.11,322.65 433.88,323.03 434.66,323.38 435.43,323.70 436.21,323.99 436.99,324.24 437.76,324.46 438.54,324.63 439.31,324.76 440.09,324.85 440.86,324.90 441.64,324.90 442.42,324.86 443.19,324.77 443.97,324.65 444.74,324.48 445.52,324.28 446.29,324.04 447.07,323.78 447.85,323.48 448.62,323.16 449.40,322.82 450.17,322.47 450.95,322.10 451.73,321.72 452.50,321.34 453.28,320.96 454.05,320.59 454.83,320.22 455.60,319.87 456.38,319.53 457.16,319.21 457.93,318.91 458.71,318.64 459.48,318.39 460.26,318.17 461.04,317.98 461.81,317.83 462.59,317.70 463.36,317.60 464.14,317.53 464.91,317.49 465.69,317.47 466.47,317.48 467.24,317.51 468.02,317.56 468.79,317.63 469.57,317.70 470.35,317.78 471.12,317.86 471.90,317.94 472.67,318.01 473.45,318.06 474.22,318.10 475.00,318.12 475.78,318.10 476.55,318.05 477.33,317.96 478.10,317.83 478.88,317.65 479.65,317.41 480.43,317.12 481.21,316.78 481.98,316.36 482.76,315.89 483.53,315.34 484.31,314.73 485.09,314.05 485.86,313.30 486.64,312.48 487.41,311.59 488.19,310.63 488.96,309.61 489.74,308.53 490.52,307.39 491.29,306.20 492.07,304.96 492.84,303.67 493.62,302.33 494.40,300.97 495.17,299.57 495.95,298.15 496.72,296.72 497.50,295.27 498.27,293.81 499.05,292.36 499.83,290.92 500.60,289.49 501.38,288.07 502.15,286.69 502.93,285.33 503.71,284.01 504.48,282.73 505.26,281.50 506.03,280.31 506.81,279.17 507.58,278.09 508.36,277.06 509.14,276.08 509.91,275.17 510.69,274.31 511.46,273.51 512.24,272.76 513.01,272.07 513.79,271.42 514.57,270.83 515.34,270.28 516.12,269.77 516.89,269.29 517.67,268.85 518.45,268.43 519.22,268.03 520.00,267.64 520.77,267.26 521.55,266.89 522.32,266.51 523.10,266.12 523.88,265.71 524.65,265.29 525.43,264.83 526.20,264.34 526.98,263.82 527.76,263.25 528.53,262.64 529.31,261.98 530.08,261.26 530.86,260.49 531.63,259.67 532.41,258.78 533.19,257.84 533.96,256.84 534.74,255.78 535.51,254.67 536.29,253.50 537.07,252.28 537.84,251.01 538.62,249.70 539.39,248.35 540.17,246.96 540.94,245.54 541.72,244.10 542.50,242.64 543.27,241.17 544.05,239.70 544.82,238.22 545.60,236.75 546.37,235.30 547.15,233.86 547.93,232.45 548.70,231.07 549.48,229.73 550.25,228.44 551.03,227.19 551.81,225.99 552.58,224.85 553.36,223.76 554.13,222.74 554.91,221.78 555.68,220.88 556.46,220.05 557.24,219.28 558.01,218.58 558.79,217.93 559.56,217.35 560.34,216.82 561.12,216.34 561.89,215.91 562.67,215.52 563.44,215.16 564.22,214.84 564.99,214.55 565.77,214.27 566.55,214.00 567.32,213.73 568.10,213.46 568.87,213.18 569.65,212.88 570.43,212.56 571.20,212.20 571.98,211.80 572.75,211.36 573.53,210.87 574.30,210.31 575.08,209.70 575.86,209.02 576.63,208.27 577.41,207.45 578.18,206.56 578.96,205.59 579.73,204.55 580.51,203.43 581.29,202.24 582.06,200.97 582.84,199.64 583.61,198.24 584.39,196.79 585.17,195.27 585.94,193.72 586.72,192.12 587.49,190.48 588.27,188.82 589.04,187.14 589.82,185.45 590.60,183.76 591.37,182.08 592.15,180.41 592.92,178.77 593.70,177.17 594.48,175.60 595.25,174.09 596.03,172.64 596.80,171.26 597.58,169.95 598.35,168.72 599.13,167.57 599.91,166.51 600.68,165.54 601.46,164.67 602.23,163.90 603.01,163.22 603.79,162.64 604.56,162.15 605.34,161.75 606.11,161.44 606.89,161.22 607.66,161.07 608.44,160.99 609.22,160.97 609.99,161.00 610.77,161.08 611.54,161.19 612.32,161.33 613.09,161.47 613.87,161.61 614.65,161.75 615.42,161.85 616.20,161.92 616.97,161.93 617.75,161.89 618.53,161.77 619.30,161.56 620.08,161.26 620.85,160.86 621.63,160.34 622.40,159.70 623.18,158.92 623.96,158.02 624.73,156.97 625.51,155.78 626.28,154.44 627.06,152.96 627.84,151.34 628.61,149.58 629.39,147.68 630.16,145.65 630.94,143.50 631.71,141.24 632.49,138.88 633.27,136.43 634.04,133.91 634.82,131.33 635.59,128.71 636.37,126.07 637.15,123.42 637.92,120.79 638.70,118.19 639.47,115.65 640.25,113.20 641.02,110.84 641.80,108.62 642.58,106.54 643.35,104.63 644.13,102.91 644.90,101.41 645.68,100.14 646.45,99.12 647.23,98.38 648.01,97.93 648.78,97.79 649.56,97.97 650.33,98.49 651.11,99.36 651.89,100.58 652.66,102.16 653.44,104.11 654.21,106.44 654.99,109.14 655.76,112.22 656.54,115.66 657.32,119.47 658.09,123.63 658.87,128.14 659.64,132.99 660.42,138.15 661.20,143.62 661.97,149.37 662.75,155.39 663.52,161.65 664.30,168.14 665.07,174.81 665.85,181.66 666.63,188.65 667.40,195.76 668.18,202.96 668.95,210.21"/>
  <circle class="open" cx="87.1" cy="321.0" r="4"/>
  <circle class="closed" cx="281.0" cy="93.7" r="4"/>
  <circle class="open" cx="281.0" cy="321.0" r="4"/>
  <circle class="closed" cx="475.0" cy="321.0" r="4"/>
  <circle class="closed" cx="669.0" cy="93.7" r="4"/>
  <circle class="open" cx="669.0" cy="321.0" r="4"/>
  <circle class="open" cx="862.9" cy="321.0" r="4"/>
  <text class="formula" x="581.7" y="51.9">f(x)=0 on (-pi,0), f(x)=x on (0,pi)</text>
  <rect class="legend-box" x="710" y="58" width="176" height="112" rx="6"/>
  <text class="legend" x="725" y="82"><tspan fill="#2563eb">f(x)</tspan> ramp</text>
  <text class="legend" x="725" y="106"><tspan fill="#111827">S0</tspan> constant term</text>
  <text class="legend" x="725" y="130"><tspan fill="#dc2626">S1</tspan> first harmonic</text>
  <text class="legend" x="725" y="154"><tspan fill="#0f766e">S2</tspan>, <tspan fill="#7c3aed">S8</tspan> partial sums</text>
</svg>
